<svg width="30" height="20" viewBox="0 0 30 20" fill="none"
  xmlns="http://www.w3.org/2000/svg">
  <rect width="30" height="20" rx="2" fill="#D9D9D9"/>
  <mask id="path-2-outside-1" maskUnits="userSpaceOnUse" x="7.25" y="2.25" width="15" height="15" fill="black">
    <rect fill="white" x="7.25" y="2.25" width="15" height="15"/>
    <path fill-rule="evenodd" clip-rule="evenodd" d="M15 3.25C13.665 3.25 12.3599 3.64588 11.2499 4.38758C10.1399 5.12928 9.27471 6.18349 8.76382 7.41689C8.25292 8.65029 8.11925 10.0075 8.3797 11.3169C8.64015 12.6262 9.28303 13.829 10.227 14.773C11.171 15.717 12.3738 16.3599 13.6831 16.6203C14.9925 16.8808 16.3497 16.7471 17.5831 16.2362C18.8165 15.7253 19.8707 14.8601 20.6124 13.7501C21.3541 12.6401 21.75 11.335 21.75 10C21.75 8.20979 21.0388 6.4929 19.773 5.22703C18.5071 3.96116 16.7902 3.25 15 3.25ZM15 16.375C13.7391 16.375 12.5066 16.0011 11.4582 15.3006C10.4099 14.6001 9.59278 13.6045 9.11027 12.4396C8.62776 11.2747 8.50152 9.99293 8.7475 8.7563C8.99348 7.51967 9.60064 6.38375 10.4922 5.49219C11.3838 4.60063 12.5197 3.99347 13.7563 3.74749C14.9929 3.50151 16.2747 3.62776 17.4396 4.11027C18.6045 4.59278 19.6001 5.40988 20.3006 6.45824C21.0011 7.5066 21.375 8.73914 21.375 10C21.375 11.6908 20.7034 13.3123 19.5078 14.5078C18.3123 15.7034 16.6908 16.375 15 16.375ZM20.3138 7.70875C20.2898 7.7097 20.2662 7.71544 20.2445 7.72562C20.2228 7.7358 20.2033 7.75023 20.1872 7.76805C20.1712 7.78587 20.1588 7.80672 20.1509 7.82938C20.143 7.85204 20.1397 7.87605 20.1413 7.9C20.1413 8.1925 19.875 8.5075 19.32 8.81125C18.624 9.18547 18.7121 9.43646 19.0032 10.2648L19.005 10.27C19.2525 10.9787 18.0113 13.0375 17.4225 13.4837L17.3363 13.5512L17.2838 13.4537C17.1776 13.167 17.1242 12.8633 17.1263 12.5575V11.8075C17.1263 11.77 17.1263 11.5862 17.01 10.9112L16.8225 10.1612C16.8141 10.1337 16.8 10.1082 16.7813 10.0862L16.185 9.41875C16.166 9.40958 16.1458 9.40326 16.125 9.4C15.5528 9.16226 14.9667 8.95939 14.37 8.7925C14.2688 8.77 14.205 8.68375 14.1863 8.545C14.1746 8.3913 14.2068 8.23745 14.2792 8.10136C14.3515 7.96526 14.4611 7.85252 14.595 7.77625C14.7117 7.72094 14.8426 7.70262 14.97 7.72375C15.0235 7.73771 15.0796 7.73888 15.1337 7.72715C15.1878 7.71543 15.2383 7.69114 15.2813 7.65625C15.3975 7.54375 15.4013 7.36375 15.36 6.88375C15.3587 6.74289 15.3288 6.60377 15.2721 6.47483C15.2154 6.3459 15.133 6.22985 15.03 6.13375C14.8781 6.04139 14.7095 5.97994 14.5338 5.95291C14.3582 5.92588 14.1789 5.93381 14.0063 5.97625C13.9219 5.98977 13.8367 5.99728 13.7513 5.99875C13.2188 5.99875 13.1213 6.3475 12.885 7.45L12.84 7.66V7.71625L12.795 7.88125L12.66 7.75C12.6295 7.71616 12.6019 7.67978 12.5775 7.64125C12.4989 7.23797 12.4513 6.82928 12.435 6.41875C12.4319 6.37988 12.4164 6.34302 12.3909 6.3135C12.3654 6.28399 12.3312 6.26336 12.2932 6.25459C12.2552 6.24582 12.2154 6.24937 12.1795 6.26472C12.1437 6.28008 12.1136 6.30644 12.0938 6.34L11.625 7.20625C11.625 7.2475 11.4788 7.465 10.8938 7.67125C10.8541 7.68759 10.8125 7.69892 10.77 7.705L10.6988 7.7725L10.6425 7.6675C10.5263 7.45375 10.7513 6.715 10.9388 6.28375C10.9568 6.23934 10.9571 6.18973 10.9396 6.14509C10.9222 6.10046 10.8883 6.0642 10.845 6.04375C10.8007 6.02478 10.7507 6.02397 10.7058 6.04151C10.6609 6.05905 10.6247 6.09352 10.605 6.1375C10.4625 6.46375 10.0313 7.5475 10.3913 7.9375C10.475 8.0119 10.5792 8.05923 10.6903 8.07329C10.8014 8.08734 10.9142 8.06746 11.0138 8.01625C11.745 7.7575 11.925 7.44625 11.97 7.32625V7.29625L12.1088 7.05625L12.1463 7.33C12.1553 7.49703 12.1907 7.66157 12.2513 7.8175C12.2775 7.8625 12.5175 8.25625 12.825 8.215C13.005 8.18875 13.125 8.035 13.2 7.7425L13.245 7.53625C13.4625 6.51625 13.5075 6.37 13.755 6.37C13.8541 6.36753 13.953 6.36002 14.0513 6.3475C14.3019 6.27845 14.5693 6.30519 14.8013 6.4225C14.9288 6.55575 15 6.73306 15 6.9175C15 7.01436 15.0068 7.09228 15.0122 7.1545V7.15451C15.0158 7.19587 15.0188 7.2303 15.0188 7.25875V7.375H14.9138H14.8425C14.6993 7.37504 14.5581 7.40842 14.43 7.4725C14.2292 7.57959 14.0642 7.74328 13.9556 7.94327C13.8469 8.14325 13.7993 8.37073 13.8188 8.5975C13.8251 8.72948 13.8743 8.8558 13.9589 8.9573C14.0435 9.05881 14.1588 9.12997 14.2875 9.16C14.8428 9.31629 15.3886 9.50409 15.9225 9.7225L15.9563 9.74875L16.5 10.345L16.6613 10.9787C16.7063 11.2937 16.77 11.7512 16.7738 11.815V12.565C16.7738 12.82 16.8225 13.6637 17.1863 13.8587C17.2542 13.8871 17.3282 13.8981 17.4014 13.8909C17.4747 13.8837 17.5451 13.8585 17.6063 13.8175C18.1163 13.4875 19.7025 11.14 19.3575 10.1575C19.1063 9.44125 19.08 9.36625 19.5038 9.1375C20.2013 8.7625 20.5425 8.33875 20.5163 7.885C20.5129 7.85834 20.5042 7.83264 20.4907 7.80943C20.4772 7.78623 20.4591 7.76601 20.4375 7.75C20.4033 7.72058 20.3588 7.70577 20.3138 7.70875ZM10.6912 10.2138C10.8721 10.3163 11.0385 10.4424 11.1862 10.5888C11.3667 10.7064 11.5639 10.7961 11.7712 10.855L11.805 10.7688L11.775 10.855C11.7841 10.8585 11.7931 10.8621 11.8022 10.8656C12.1956 11.0185 12.5335 11.1497 12.5775 11.41C12.5869 11.4765 12.5783 11.5442 12.5525 11.6062C12.5268 11.6683 12.4849 11.7222 12.4312 11.7625L12.345 11.8413C12.0805 12.034 11.871 12.2925 11.7375 12.5913C11.5387 12.9888 11.22 13.9225 11.22 13.9225C11.2023 13.9671 11.1688 14.0036 11.1259 14.025C11.083 14.0465 11.0337 14.0514 10.9875 14.0388C10.9419 14.0226 10.9045 13.9891 10.8835 13.9456C10.8624 13.9021 10.8594 13.852 10.875 13.8063C10.875 13.7988 11.1862 12.8575 11.3962 12.445C11.5533 12.1092 11.7918 11.8179 12.09 11.5975L12.21 11.485L12.0975 11.4213C11.9447 11.3471 11.7882 11.2808 11.6287 11.2225C11.3724 11.1424 11.1334 11.0152 10.9237 10.8475C10.7965 10.7185 10.6512 10.6086 10.4925 10.5213C10.4137 10.4763 10.3312 10.4238 10.23 10.3525L10.1287 10.2813L10.0875 10.3975C9.96438 10.8078 9.88642 11.2303 9.85496 11.6575C9.85329 11.6814 9.84678 11.7047 9.83582 11.7259C9.82486 11.7472 9.80968 11.766 9.79121 11.7813C9.77328 11.7965 9.75228 11.8077 9.72965 11.8142C9.70701 11.8207 9.68325 11.8222 9.65996 11.8188C9.63609 11.8171 9.6128 11.8106 9.59153 11.7996C9.57025 11.7887 9.55143 11.7735 9.53621 11.755C9.50598 11.7182 9.4912 11.6712 9.49496 11.6238C9.55496 10.9225 9.69746 10.0525 10.0125 9.9175C10.0626 9.89661 10.1176 9.89011 10.1713 9.89872C10.2249 9.90733 10.2751 9.93072 10.3162 9.96625C10.4358 10.0567 10.561 10.1394 10.6912 10.2138Z"/>
  </mask>
  <path fill-rule="evenodd" clip-rule="evenodd" d="M15 3.25C13.665 3.25 12.3599 3.64588 11.2499 4.38758C10.1399 5.12928 9.27471 6.18349 8.76382 7.41689C8.25292 8.65029 8.11925 10.0075 8.3797 11.3169C8.64015 12.6262 9.28303 13.829 10.227 14.773C11.171 15.717 12.3738 16.3599 13.6831 16.6203C14.9925 16.8808 16.3497 16.7471 17.5831 16.2362C18.8165 15.7253 19.8707 14.8601 20.6124 13.7501C21.3541 12.6401 21.75 11.335 21.75 10C21.75 8.20979 21.0388 6.4929 19.773 5.22703C18.5071 3.96116 16.7902 3.25 15 3.25ZM15 16.375C13.7391 16.375 12.5066 16.0011 11.4582 15.3006C10.4099 14.6001 9.59278 13.6045 9.11027 12.4396C8.62776 11.2747 8.50152 9.99293 8.7475 8.7563C8.99348 7.51967 9.60064 6.38375 10.4922 5.49219C11.3838 4.60063 12.5197 3.99347 13.7563 3.74749C14.9929 3.50151 16.2747 3.62776 17.4396 4.11027C18.6045 4.59278 19.6001 5.40988 20.3006 6.45824C21.0011 7.5066 21.375 8.73914 21.375 10C21.375 11.6908 20.7034 13.3123 19.5078 14.5078C18.3123 15.7034 16.6908 16.375 15 16.375ZM20.3138 7.70875C20.2898 7.7097 20.2662 7.71544 20.2445 7.72562C20.2228 7.7358 20.2033 7.75023 20.1872 7.76805C20.1712 7.78587 20.1588 7.80672 20.1509 7.82938C20.143 7.85204 20.1397 7.87605 20.1413 7.9C20.1413 8.1925 19.875 8.5075 19.32 8.81125C18.624 9.18547 18.7121 9.43646 19.0032 10.2648L19.005 10.27C19.2525 10.9787 18.0113 13.0375 17.4225 13.4837L17.3363 13.5512L17.2838 13.4537C17.1776 13.167 17.1242 12.8633 17.1263 12.5575V11.8075C17.1263 11.77 17.1263 11.5862 17.01 10.9112L16.8225 10.1612C16.8141 10.1337 16.8 10.1082 16.7813 10.0862L16.185 9.41875C16.166 9.40958 16.1458 9.40326 16.125 9.4C15.5528 9.16226 14.9667 8.95939 14.37 8.7925C14.2688 8.77 14.205 8.68375 14.1863 8.545C14.1746 8.3913 14.2068 8.23745 14.2792 8.10136C14.3515 7.96526 14.4611 7.85252 14.595 7.77625C14.7117 7.72094 14.8426 7.70262 14.97 7.72375C15.0235 7.73771 15.0796 7.73888 15.1337 7.72715C15.1878 7.71543 15.2383 7.69114 15.2813 7.65625C15.3975 7.54375 15.4013 7.36375 15.36 6.88375C15.3587 6.74289 15.3288 6.60377 15.2721 6.47483C15.2154 6.3459 15.133 6.22985 15.03 6.13375C14.8781 6.04139 14.7095 5.97994 14.5338 5.95291C14.3582 5.92588 14.1789 5.93381 14.0063 5.97625C13.9219 5.98977 13.8367 5.99728 13.7513 5.99875C13.2188 5.99875 13.1213 6.3475 12.885 7.45L12.84 7.66V7.71625L12.795 7.88125L12.66 7.75C12.6295 7.71616 12.6019 7.67978 12.5775 7.64125C12.4989 7.23797 12.4513 6.82928 12.435 6.41875C12.4319 6.37988 12.4164 6.34302 12.3909 6.3135C12.3654 6.28399 12.3312 6.26336 12.2932 6.25459C12.2552 6.24582 12.2154 6.24937 12.1795 6.26472C12.1437 6.28008 12.1136 6.30644 12.0938 6.34L11.625 7.20625C11.625 7.2475 11.4788 7.465 10.8938 7.67125C10.8541 7.68759 10.8125 7.69892 10.77 7.705L10.6988 7.7725L10.6425 7.6675C10.5263 7.45375 10.7513 6.715 10.9388 6.28375C10.9568 6.23934 10.9571 6.18973 10.9396 6.14509C10.9222 6.10046 10.8883 6.0642 10.845 6.04375C10.8007 6.02478 10.7507 6.02397 10.7058 6.04151C10.6609 6.05905 10.6247 6.09352 10.605 6.1375C10.4625 6.46375 10.0313 7.5475 10.3913 7.9375C10.475 8.0119 10.5792 8.05923 10.6903 8.07329C10.8014 8.08734 10.9142 8.06746 11.0138 8.01625C11.745 7.7575 11.925 7.44625 11.97 7.32625V7.29625L12.1088 7.05625L12.1463 7.33C12.1553 7.49703 12.1907 7.66157 12.2513 7.8175C12.2775 7.8625 12.5175 8.25625 12.825 8.215C13.005 8.18875 13.125 8.035 13.2 7.7425L13.245 7.53625C13.4625 6.51625 13.5075 6.37 13.755 6.37C13.8541 6.36753 13.953 6.36002 14.0513 6.3475C14.3019 6.27845 14.5693 6.30519 14.8013 6.4225C14.9288 6.55575 15 6.73306 15 6.9175C15 7.01436 15.0068 7.09228 15.0122 7.1545V7.15451C15.0158 7.19587 15.0188 7.2303 15.0188 7.25875V7.375H14.9138H14.8425C14.6993 7.37504 14.5581 7.40842 14.43 7.4725C14.2292 7.57959 14.0642 7.74328 13.9556 7.94327C13.8469 8.14325 13.7993 8.37073 13.8188 8.5975C13.8251 8.72948 13.8743 8.8558 13.9589 8.9573C14.0435 9.05881 14.1588 9.12997 14.2875 9.16C14.8428 9.31629 15.3886 9.50409 15.9225 9.7225L15.9563 9.74875L16.5 10.345L16.6613 10.9787C16.7063 11.2937 16.77 11.7512 16.7738 11.815V12.565C16.7738 12.82 16.8225 13.6637 17.1863 13.8587C17.2542 13.8871 17.3282 13.8981 17.4014 13.8909C17.4747 13.8837 17.5451 13.8585 17.6063 13.8175C18.1163 13.4875 19.7025 11.14 19.3575 10.1575C19.1063 9.44125 19.08 9.36625 19.5038 9.1375C20.2013 8.7625 20.5425 8.33875 20.5163 7.885C20.5129 7.85834 20.5042 7.83264 20.4907 7.80943C20.4772 7.78623 20.4591 7.76601 20.4375 7.75C20.4033 7.72058 20.3588 7.70577 20.3138 7.70875ZM10.6912 10.2138C10.8721 10.3163 11.0385 10.4424 11.1862 10.5888C11.3667 10.7064 11.5639 10.7961 11.7712 10.855L11.805 10.7688L11.775 10.855C11.7841 10.8585 11.7931 10.8621 11.8022 10.8656C12.1956 11.0185 12.5335 11.1497 12.5775 11.41C12.5869 11.4765 12.5783 11.5442 12.5525 11.6062C12.5268 11.6683 12.4849 11.7222 12.4312 11.7625L12.345 11.8413C12.0805 12.034 11.871 12.2925 11.7375 12.5913C11.5387 12.9888 11.22 13.9225 11.22 13.9225C11.2023 13.9671 11.1688 14.0036 11.1259 14.025C11.083 14.0465 11.0337 14.0514 10.9875 14.0388C10.9419 14.0226 10.9045 13.9891 10.8835 13.9456C10.8624 13.9021 10.8594 13.852 10.875 13.8063C10.875 13.7988 11.1862 12.8575 11.3962 12.445C11.5533 12.1092 11.7918 11.8179 12.09 11.5975L12.21 11.485L12.0975 11.4213C11.9447 11.3471 11.7882 11.2808 11.6287 11.2225C11.3724 11.1424 11.1334 11.0152 10.9237 10.8475C10.7965 10.7185 10.6512 10.6086 10.4925 10.5213C10.4137 10.4763 10.3312 10.4238 10.23 10.3525L10.1287 10.2813L10.0875 10.3975C9.96438 10.8078 9.88642 11.2303 9.85496 11.6575C9.85329 11.6814 9.84678 11.7047 9.83582 11.7259C9.82486 11.7472 9.80968 11.766 9.79121 11.7813C9.77328 11.7965 9.75228 11.8077 9.72965 11.8142C9.70701 11.8207 9.68325 11.8222 9.65996 11.8188C9.63609 11.8171 9.6128 11.8106 9.59153 11.7996C9.57025 11.7887 9.55143 11.7735 9.53621 11.755C9.50598 11.7182 9.4912 11.6712 9.49496 11.6238C9.55496 10.9225 9.69746 10.0525 10.0125 9.9175C10.0626 9.89661 10.1176 9.89011 10.1713 9.89872C10.2249 9.90733 10.2751 9.93072 10.3162 9.96625C10.4358 10.0567 10.561 10.1394 10.6912 10.2138Z" fill="black"/>
  <path d="M11.2499 4.38758L11.361 4.55387L11.361 4.55387L11.2499 4.38758ZM8.76382 7.41689L8.57904 7.34035L8.57904 7.34035L8.76382 7.41689ZM8.3797 11.3169L8.18355 11.3559L8.3797 11.3169ZM17.5831 16.2362L17.5066 16.0514L17.5066 16.0514L17.5831 16.2362ZM20.6124 13.7501L20.7787 13.8612L20.7787 13.8612L20.6124 13.7501ZM19.773 5.22703L19.9144 5.08561L19.9144 5.08561L19.773 5.22703ZM11.4582 15.3006L11.3471 15.4669L11.3471 15.4669L11.4582 15.3006ZM9.11027 12.4396L8.9255 12.5161L8.9255 12.5161L9.11027 12.4396ZM8.7475 8.7563L8.55134 8.71728L8.55134 8.71728L8.7475 8.7563ZM10.4922 5.49219L10.3508 5.35077L10.3508 5.35077L10.4922 5.49219ZM20.3006 6.45824L20.1343 6.56935L20.1343 6.56935L20.3006 6.45824ZM20.2445 7.72562L20.1596 7.54452L20.1596 7.54453L20.2445 7.72562ZM20.3138 7.70875L20.3217 7.90866L20.3269 7.90831L20.3138 7.70875ZM20.1509 7.82938L20.3398 7.89519L20.3398 7.89519L20.1509 7.82938ZM20.1413 7.9H20.3417L20.3409 7.88734L20.1413 7.9ZM19.32 8.81125L19.4147 8.98741L19.416 8.98669L19.32 8.81125ZM19.0032 10.2648L18.8145 10.3311L18.8145 10.3312L19.0032 10.2648ZM19.005 10.27L19.1938 10.2041L19.1937 10.2037L19.005 10.27ZM17.4225 13.4837L17.3017 13.3243L17.2992 13.3262L17.4225 13.4837ZM17.3363 13.5512L17.1602 13.6461L17.2727 13.855L17.4595 13.7087L17.3363 13.5512ZM17.2838 13.4537L17.0962 13.5232L17.1011 13.5363L17.1077 13.5486L17.2838 13.4537ZM17.1263 12.5575L17.3263 12.5589V12.5575H17.1263ZM17.01 10.9112L17.2071 10.8773L17.2058 10.87L17.204 10.8627L17.01 10.9112ZM16.8225 10.1612L17.0168 10.1127L17.0137 10.1026L16.8225 10.1612ZM16.7813 10.0862L16.9332 9.95615L16.9304 9.95301L16.7813 10.0862ZM16.185 9.41875L16.3342 9.28551L16.3078 9.25596L16.2721 9.2387L16.185 9.41875ZM16.125 9.4L16.0483 9.58469L16.0704 9.59388L16.0941 9.59759L16.125 9.4ZM14.37 8.7925L14.424 8.59961L14.4134 8.59726L14.37 8.7925ZM14.1863 8.545L13.9865 8.56017L13.9881 8.57178L14.1863 8.545ZM14.595 7.77625L14.5094 7.59551L14.5026 7.59873L14.496 7.60245L14.595 7.77625ZM14.97 7.72375L15.0205 7.53022L15.0117 7.52793L15.0027 7.52644L14.97 7.72375ZM15.1337 7.72715L15.0913 7.5317L15.0913 7.5317L15.1337 7.72715ZM15.2813 7.65625L15.4074 7.81148L15.4141 7.806L15.4203 7.79997L15.2813 7.65625ZM15.36 6.88375L15.16 6.88556L15.1601 6.89323L15.1607 6.90087L15.36 6.88375ZM15.2721 6.47483L15.4552 6.39429L15.4552 6.39429L15.2721 6.47483ZM15.03 6.13375L15.1665 5.98753L15.1515 5.97353L15.1339 5.96287L15.03 6.13375ZM14.5338 5.95291L14.5643 5.75523L14.5643 5.75523L14.5338 5.95291ZM14.0063 5.97625L14.0379 6.17373L14.046 6.17243L14.054 6.17047L14.0063 5.97625ZM13.7513 5.99875V6.19878L13.7547 6.19872L13.7513 5.99875ZM12.885 7.45L13.0806 7.4919L13.0806 7.4919L12.885 7.45ZM12.84 7.66L12.6445 7.61809L12.64 7.63881V7.66H12.84ZM12.84 7.71625L13.033 7.76887L13.04 7.74303V7.71625H12.84ZM12.795 7.88125L12.6556 8.02465L12.8987 8.26103L12.988 7.93387L12.795 7.88125ZM12.66 7.75L12.5112 7.88428L12.5206 7.8934L12.66 7.75ZM12.5775 7.64125L12.3812 7.67949L12.3884 7.71638L12.4085 7.74814L12.5775 7.64125ZM12.435 6.41875L12.635 6.41081L12.6344 6.40255L12.435 6.41875ZM12.3909 6.3135L12.2396 6.44425L12.2396 6.44426L12.3909 6.3135ZM12.1795 6.26472L12.1008 6.08087L12.1008 6.08087L12.1795 6.26472ZM12.0938 6.34L11.9215 6.23801L11.9179 6.24482L12.0938 6.34ZM11.625 7.20625L11.4491 7.11107L11.425 7.15561V7.20625H11.625ZM10.8938 7.67125L10.8272 7.48238L10.8176 7.48631L10.8938 7.67125ZM10.77 7.705L10.7417 7.50701L10.6787 7.51602L10.6325 7.55981L10.77 7.705ZM10.6988 7.7725L10.5225 7.86694L10.6462 8.09783L10.8363 7.91769L10.6988 7.7725ZM10.6425 7.6675L10.8188 7.57305L10.8182 7.57194L10.6425 7.6675ZM10.9388 6.28375L11.1222 6.36352L11.1241 6.35888L10.9388 6.28375ZM10.9396 6.14509L11.1259 6.07232L11.1259 6.07232L10.9396 6.14509ZM10.845 6.04375L10.9304 5.86276L10.9237 5.85989L10.845 6.04375ZM10.7058 6.04151L10.7786 6.2278L10.7786 6.2278L10.7058 6.04151ZM10.605 6.1375L10.4225 6.05568L10.4217 6.05745L10.605 6.1375ZM10.3913 7.9375L10.2443 8.07315L10.251 8.08042L10.2584 8.08698L10.3913 7.9375ZM10.6903 8.07329L10.7154 7.87487L10.7154 7.87487L10.6903 8.07329ZM11.0138 8.01625L10.947 7.8277L10.9343 7.83221L10.9223 7.83838L11.0138 8.01625ZM11.97 7.32625L12.1573 7.39647L12.17 7.36252V7.32625H11.97ZM11.97 7.29625L11.7969 7.19615L11.77 7.2426V7.29625H11.97ZM12.1088 7.05625L12.3069 7.02911L12.2277 6.45091L11.9356 6.95615L12.1088 7.05625ZM12.1463 7.33L12.346 7.31922L12.3455 7.311L12.3444 7.30285L12.1463 7.33ZM12.2513 7.8175L12.0648 7.88989L12.0705 7.90462L12.0785 7.91827L12.2513 7.8175ZM12.825 8.215L12.8516 8.41324L12.8539 8.41291L12.825 8.215ZM13.2 7.7425L13.3939 7.79221L13.3954 7.78513L13.2 7.7425ZM13.245 7.53625L13.4404 7.57888L13.4406 7.57796L13.245 7.53625ZM13.755 6.37V6.57006L13.76 6.56994L13.755 6.37ZM14.0513 6.3475L14.0765 6.54589L14.0907 6.5441L14.1044 6.54032L14.0513 6.3475ZM14.8013 6.4225L14.9458 6.28423L14.9221 6.25948L14.8915 6.24402L14.8013 6.4225ZM15 6.9175L15.2 6.9175L15.2 6.91745L15 6.9175ZM15.0122 7.1545H15.2122V7.14584L15.2114 7.1372L15.0122 7.1545ZM15.0122 7.15451H14.8122V7.16317L14.8129 7.17181L15.0122 7.15451ZM15.0188 7.375V7.575H15.2188V7.375H15.0188ZM14.8425 7.375L14.8425 7.175L14.8425 7.175L14.8425 7.375ZM14.43 7.4725L14.3405 7.29358L14.3359 7.29602L14.43 7.4725ZM13.9556 7.94327L13.7798 7.84778L13.7798 7.84778L13.9556 7.94327ZM13.8188 8.5975L14.0187 8.58791L14.018 8.58043L13.8188 8.5975ZM13.9589 8.9573L13.8052 9.08534L13.8052 9.08534L13.9589 8.9573ZM14.2875 9.16L14.3418 8.96728L14.333 8.96523L14.2875 9.16ZM15.9225 9.7225L16.0453 9.56463L16.0236 9.54778L15.9982 9.53739L15.9225 9.7225ZM15.9563 9.74875L16.104 9.61398L16.0925 9.60136L16.079 9.59088L15.9563 9.74875ZM16.5 10.345L16.6938 10.2957L16.6815 10.2472L16.6478 10.2102L16.5 10.345ZM16.6613 10.9787L16.8593 10.9505L16.8577 10.9398L16.8551 10.9294L16.6613 10.9787ZM16.7738 11.815H16.9741L16.9734 11.8033L16.7738 11.815ZM17.1863 13.8587L17.0918 14.035L17.1004 14.0396L17.1094 14.0434L17.1863 13.8587ZM17.6063 13.8175L17.4976 13.6496L17.4949 13.6514L17.6063 13.8175ZM19.3575 10.1575L19.1688 10.2237L19.1688 10.2238L19.3575 10.1575ZM19.5038 9.1375L19.4091 8.96134L19.4088 8.9615L19.5038 9.1375ZM20.5163 7.885L20.7164 7.87342L20.7147 7.86027L20.5163 7.885ZM20.4907 7.80943L20.318 7.9102L20.318 7.91021L20.4907 7.80943ZM20.4375 7.75L20.3072 7.90174L20.3126 7.90636L20.3183 7.91058L20.4375 7.75ZM11.1862 10.5888L11.0454 10.7308L11.0599 10.7452L11.077 10.7563L11.1862 10.5888ZM10.6912 10.2138L10.592 10.3874L10.5926 10.3877L10.6912 10.2138ZM11.7712 10.855L11.7166 11.0474L11.8913 11.097L11.9575 10.9279L11.7712 10.855ZM11.805 10.7688L11.9939 10.8345L11.6187 10.6959L11.805 10.7688ZM11.775 10.855L11.5861 10.7893L11.5227 10.9715L11.7025 11.0414L11.775 10.855ZM11.8022 10.8656L11.7297 11.052L11.7297 11.052L11.8022 10.8656ZM12.5775 11.41L12.7756 11.382L12.7747 11.3767L12.5775 11.41ZM12.5525 11.6062L12.3678 11.5296L12.3678 11.5296L12.5525 11.6062ZM12.4312 11.7625L12.3112 11.6025L12.3035 11.6083L12.2964 11.6148L12.4312 11.7625ZM12.345 11.8413L12.4627 12.0029L12.4717 11.9964L12.4798 11.9889L12.345 11.8413ZM11.7375 12.5913L11.9165 12.6808L11.92 12.6729L11.7375 12.5913ZM11.22 13.9225L11.4061 13.9963L11.4092 13.9871L11.22 13.9225ZM10.9875 14.0388L10.9206 14.2273L10.9277 14.2298L10.9349 14.2317L10.9875 14.0388ZM10.8835 13.9456L11.0635 13.8585L11.0635 13.8585L10.8835 13.9456ZM10.875 13.8063L11.0643 13.8708L11.075 13.8394V13.8063H10.875ZM11.3962 12.445L11.5745 12.5358L11.5774 12.5298L11.3962 12.445ZM12.09 11.5975L12.2088 11.7583L12.2182 11.7514L12.2267 11.7434L12.09 11.5975ZM12.21 11.485L12.3467 11.6309L12.545 11.445L12.3086 11.311L12.21 11.485ZM12.0975 11.4213L12.1963 11.2469L12.1848 11.2413L12.0975 11.4213ZM11.6287 11.2225L11.6974 11.0344L11.6884 11.0316L11.6287 11.2225ZM10.9237 10.8475L10.7813 10.9879L10.7896 10.9963L10.7988 11.0037L10.9237 10.8475ZM10.4925 10.5213L10.3932 10.6949L10.3961 10.6965L10.4925 10.5213ZM10.23 10.3525L10.3451 10.1889L10.3451 10.1889L10.23 10.3525ZM10.1287 10.2813L10.2438 10.1177L10.0283 9.96606L9.94023 10.2144L10.1287 10.2813ZM10.0875 10.3975L9.89874 10.3305L9.89589 10.34L10.0875 10.3975ZM9.85496 11.6575L9.6555 11.6428L9.65545 11.6436L9.85496 11.6575ZM9.79121 11.7813L9.66402 11.6269L9.66164 11.6289L9.79121 11.7813ZM9.72965 11.8142L9.78459 12.0065L9.7846 12.0065L9.72965 11.8142ZM9.65996 11.8188L9.68948 11.6209L9.68172 11.6198L9.6739 11.6192L9.65996 11.8188ZM9.59153 11.7996L9.68312 11.6218L9.68311 11.6218L9.59153 11.7996ZM9.53621 11.755L9.38174 11.882L9.38185 11.8822L9.53621 11.755ZM9.49496 11.6238L9.29569 11.6067L9.29559 11.6079L9.49496 11.6238ZM10.0125 9.9175L9.93557 9.73286L9.93368 9.73367L10.0125 9.9175ZM10.1713 9.89872L10.203 9.70125L10.203 9.70125L10.1713 9.89872ZM10.3162 9.96625L10.1851 10.1179L10.1956 10.1258L10.3162 9.96625ZM11.361 4.55387C12.4382 3.83415 13.7045 3.45 15 3.45V3.05C13.6254 3.05 12.2817 3.45761 11.1388 4.22129L11.361 4.55387ZM8.94859 7.49342C9.44435 6.29657 10.2839 5.2736 11.361 4.55387L11.1388 4.22129C9.99587 4.98496 9.10507 6.0704 8.57904 7.34035L8.94859 7.49342ZM8.57586 11.2778C8.32313 10.0073 8.45284 8.69028 8.94859 7.49342L8.57904 7.34035C8.05301 8.6103 7.91538 10.0077 8.18355 11.3559L8.57586 11.2778ZM10.3685 14.6315C9.45242 13.7155 8.82859 12.5484 8.57586 11.2778L8.18355 11.3559C8.45171 12.704 9.11364 13.9424 10.0856 14.9144L10.3685 14.6315ZM13.7222 16.4241C12.4516 16.1714 11.2845 15.5476 10.3685 14.6315L10.0856 14.9144C11.0576 15.8864 12.296 16.5483 13.6441 16.8165L13.7222 16.4241ZM17.5066 16.0514C16.3097 16.5472 14.9927 16.6769 13.7222 16.4241L13.6441 16.8165C14.9923 17.0846 16.3897 16.947 17.6597 16.421L17.5066 16.0514ZM20.4461 13.639C19.7264 14.7161 18.7034 15.5557 17.5066 16.0514L17.6597 16.421C18.9296 15.8949 20.015 15.0041 20.7787 13.8612L20.4461 13.639ZM21.55 10C21.55 11.2955 21.1659 12.5618 20.4461 13.639L20.7787 13.8612C21.5424 12.7183 21.95 11.3746 21.95 10H21.55ZM19.6316 5.36845C20.8599 6.59681 21.55 8.26283 21.55 10H21.95C21.95 8.15675 21.2178 6.38899 19.9144 5.08561L19.6316 5.36845ZM15 3.45C16.7372 3.45 18.4032 4.14009 19.6316 5.36845L19.9144 5.08561C18.611 3.78223 16.8433 3.05 15 3.05V3.45ZM11.3471 15.4669C12.4284 16.1894 13.6996 16.575 15 16.575V16.175C13.7787 16.175 12.5848 15.8128 11.5694 15.1343L11.3471 15.4669ZM8.9255 12.5161C9.42314 13.7176 10.2659 14.7444 11.3471 15.4669L11.5694 15.1343C10.5539 14.4558 9.76242 13.4914 9.29505 12.3631L8.9255 12.5161ZM8.55134 8.71728C8.29764 9.99271 8.42785 11.3147 8.9255 12.5161L9.29505 12.3631C8.82768 11.2347 8.70539 9.99315 8.94365 8.79532L8.55134 8.71728ZM10.3508 5.35077C9.43125 6.2703 8.80504 7.44186 8.55134 8.71728L8.94365 8.79532C9.18192 7.59748 9.77003 6.49721 10.6336 5.63362L10.3508 5.35077ZM13.7173 3.55134C12.4419 3.80503 11.2703 4.43124 10.3508 5.35077L10.6336 5.63362C11.4972 4.77003 12.5975 4.18191 13.7953 3.94365L13.7173 3.55134ZM17.5161 3.92549C16.3147 3.42785 14.9927 3.29764 13.7173 3.55134L13.7953 3.94365C14.9932 3.70539 16.2347 3.82767 17.3631 4.29504L17.5161 3.92549ZM20.4669 6.34713C19.7444 5.26587 18.7176 4.42314 17.5161 3.92549L17.3631 4.29504C18.4914 4.76242 19.4558 5.55388 20.1343 6.56935L20.4669 6.34713ZM21.575 10C21.575 8.69959 21.1894 7.42838 20.4669 6.34713L20.1343 6.56935C20.8128 7.58483 21.175 8.7787 21.175 10H21.575ZM19.6492 14.6492C20.8823 13.4162 21.575 11.7438 21.575 10H21.175C21.175 11.6377 20.5244 13.2083 19.3664 14.3664L19.6492 14.6492ZM15 16.575C16.7438 16.575 18.4162 15.8823 19.6492 14.6492L19.3664 14.3664C18.2084 15.5244 16.6377 16.175 15 16.175V16.575ZM20.3294 7.90672C20.327 7.90785 20.3244 7.90849 20.3217 7.90859L20.3058 7.50891C20.2552 7.51092 20.2055 7.52303 20.1596 7.54452L20.3294 7.90672ZM20.3358 7.902C20.334 7.90398 20.3318 7.90558 20.3294 7.90672L20.1596 7.54453C20.1138 7.56602 20.0727 7.59648 20.0387 7.63409L20.3358 7.902ZM20.3398 7.89519C20.3389 7.8977 20.3375 7.90002 20.3358 7.902L20.0387 7.63409C20.0048 7.67172 19.9787 7.71574 19.9621 7.76357L20.3398 7.89519ZM20.3409 7.88734C20.341 7.89001 20.3407 7.89267 20.3398 7.89519L19.9621 7.76357C19.9454 7.81141 19.9385 7.86209 19.9417 7.91265L20.3409 7.88734ZM19.416 8.98669C19.7054 8.82834 19.9319 8.66054 20.0884 8.48411C20.2452 8.30725 20.3413 8.11013 20.3413 7.9H19.9413C19.9413 7.98237 19.9042 8.089 19.7891 8.2187C19.6737 8.34883 19.4897 8.4904 19.224 8.63581L19.416 8.98669ZM19.1919 10.1985C19.1182 9.98877 19.0613 9.82635 19.0255 9.69005C18.9896 9.55349 18.9805 9.46255 18.9897 9.39432C19.0045 9.28404 19.0757 9.1697 19.4147 8.9874L19.2253 8.63509C18.8683 8.82702 18.6356 9.02528 18.5932 9.34115C18.5738 9.48599 18.5978 9.63651 18.6386 9.79168C18.6794 9.94711 18.7427 10.1267 18.8145 10.3311L19.1919 10.1985ZM19.1937 10.2037L19.1919 10.1985L18.8145 10.3312L18.8163 10.3363L19.1937 10.2037ZM17.5433 13.6431C17.7145 13.5134 17.9163 13.2817 18.1144 13.0111C18.3154 12.7364 18.523 12.4071 18.7037 12.0697C18.8839 11.7331 19.0405 11.3828 19.1364 11.0664C19.2288 10.7613 19.2782 10.4457 19.1938 10.2041L18.8162 10.3359C18.8556 10.4486 18.8427 10.6562 18.7535 10.9504C18.6679 11.2333 18.5237 11.5584 18.351 11.8809C18.1788 12.2026 17.9811 12.5159 17.7916 12.7749C17.599 13.038 17.4249 13.231 17.3017 13.3244L17.5433 13.6431ZM17.4595 13.7087L17.5458 13.6412L17.2992 13.3262L17.213 13.3937L17.4595 13.7087ZM17.1077 13.5486L17.1602 13.6461L17.5124 13.4564L17.4599 13.3589L17.1077 13.5486ZM16.9263 12.5561C16.924 12.8861 16.9816 13.2138 17.0962 13.5232L17.4713 13.3843C17.3735 13.1202 17.3243 12.8405 17.3263 12.5589L16.9263 12.5561ZM16.9263 11.8075V12.5575H17.3263V11.8075H16.9263ZM16.8129 10.9452C16.9284 11.6155 16.9263 11.7865 16.9263 11.8075H17.3263C17.3263 11.7535 17.3242 11.557 17.2071 10.8773L16.8129 10.9452ZM16.6285 10.2098L16.816 10.9598L17.204 10.8627L17.0165 10.1127L16.6285 10.2098ZM16.6293 10.2163C16.6302 10.2174 16.6309 10.2186 16.6313 10.2199L17.0137 10.1026C16.9972 10.0488 16.9698 9.99894 16.9332 9.95617L16.6293 10.2163ZM16.0359 9.55199L16.6321 10.2195L16.9304 9.95301L16.3342 9.28551L16.0359 9.55199ZM16.0941 9.59759C16.0954 9.5978 16.0967 9.59821 16.0979 9.5988L16.2721 9.2387C16.2354 9.22095 16.1962 9.20871 16.156 9.20241L16.0941 9.59759ZM14.3161 8.98511C14.9051 9.14982 15.4835 9.35005 16.0483 9.58469L16.2017 9.21531C15.6221 8.97447 15.0284 8.76895 14.4239 8.59989L14.3161 8.98511ZM13.9881 8.57178C14.0131 8.75721 14.1128 8.94022 14.3266 8.98774L14.4134 8.59726C14.4106 8.59663 14.4102 8.59612 14.4107 8.59649C14.4112 8.59682 14.4102 8.59635 14.4078 8.59321C14.4026 8.5861 14.3908 8.56477 14.3845 8.51822L13.9881 8.57178ZM14.1026 8.00747C14.0124 8.17701 13.9723 8.36867 13.9868 8.56014L14.3857 8.52986C14.3769 8.41394 14.4012 8.2979 14.4558 8.19525L14.1026 8.00747ZM14.496 7.60245C14.3292 7.69747 14.1927 7.83792 14.1026 8.00747L14.4558 8.19525C14.5103 8.09261 14.593 8.00757 14.694 7.95005L14.496 7.60245ZM15.0027 7.52644C14.8351 7.49865 14.6629 7.52275 14.5094 7.59551L14.6806 7.95699C14.7605 7.91914 14.8501 7.9066 14.9373 7.92106L15.0027 7.52644ZM15.0913 7.5317C15.0679 7.53677 15.0437 7.53627 15.0205 7.53022L14.9195 7.91727C15.0034 7.93916 15.0913 7.94099 15.1761 7.92261L15.0913 7.5317ZM15.1551 7.50102C15.1366 7.51612 15.1147 7.52662 15.0913 7.5317L15.1761 7.92261C15.2608 7.90423 15.3401 7.86616 15.4074 7.81148L15.1551 7.50102ZM15.1607 6.90087C15.1816 7.14355 15.189 7.29147 15.1804 7.39055C15.1726 7.48131 15.1537 7.5014 15.1422 7.51253L15.4203 7.79997C15.5251 7.6986 15.5662 7.57244 15.579 7.42507C15.591 7.28603 15.5797 7.10395 15.5593 6.86662L15.1607 6.90087ZM15.089 6.55538C15.1348 6.65949 15.159 6.77183 15.16 6.88556L15.56 6.88193C15.5585 6.71396 15.5228 6.54805 15.4552 6.39429L15.089 6.55538ZM14.8936 6.27997C14.9767 6.35757 15.0432 6.45127 15.089 6.55538L15.4552 6.39429C15.3875 6.24053 15.2893 6.10214 15.1665 5.98753L14.8936 6.27997ZM14.5034 6.15058C14.6531 6.17361 14.7967 6.22596 14.9261 6.30463L15.1339 5.96287C14.9596 5.85683 14.766 5.78627 14.5643 5.75523L14.5034 6.15058ZM14.054 6.17047C14.201 6.13432 14.3538 6.12756 14.5034 6.15058L14.5643 5.75523C14.3625 5.7242 14.1567 5.73331 13.9585 5.78203L14.054 6.17047ZM13.7547 6.19872C13.8496 6.19709 13.9442 6.18874 14.0379 6.17373L13.9746 5.77877C13.8996 5.79079 13.8238 5.79748 13.7478 5.79878L13.7547 6.19872ZM13.0806 7.4919C13.2012 6.92876 13.2794 6.5995 13.3834 6.40534C13.4313 6.31584 13.4773 6.27055 13.5234 6.24429C13.5709 6.21724 13.6391 6.19875 13.7513 6.19875V5.79875C13.5972 5.79875 13.4535 5.82385 13.3256 5.89665C13.1963 5.97023 13.1033 6.08103 13.0307 6.21653C12.8937 6.47237 12.805 6.86874 12.6895 7.40809L13.0806 7.4919ZM13.0356 7.7019L13.0806 7.4919L12.6895 7.40809L12.6445 7.61809L13.0356 7.7019ZM13.04 7.71625V7.66H12.64V7.71625H13.04ZM12.988 7.93387L13.033 7.76887L12.6471 7.66362L12.6021 7.82862L12.988 7.93387ZM12.5206 7.8934L12.6556 8.02465L12.9344 7.73785L12.7994 7.6066L12.5206 7.8934ZM12.4085 7.74814C12.4389 7.79626 12.4734 7.84171 12.5115 7.88399L12.8085 7.61601C12.7856 7.5906 12.7648 7.56329 12.7466 7.53436L12.4085 7.74814ZM12.2352 6.42668C12.2519 6.8474 12.3007 7.26622 12.3812 7.67949L12.7738 7.603C12.6972 7.20973 12.6507 6.81117 12.6349 6.41082L12.2352 6.42668ZM12.2396 6.44426C12.2373 6.44165 12.2359 6.43839 12.2357 6.43495L12.6344 6.40255C12.6278 6.32137 12.5955 6.24439 12.5422 6.18275L12.2396 6.44426ZM12.2482 6.44947C12.2449 6.44869 12.2418 6.44686 12.2396 6.44425L12.5423 6.18275C12.489 6.12112 12.4175 6.07802 12.3382 6.05971L12.2482 6.44947ZM12.2583 6.44857C12.2551 6.44993 12.2516 6.45024 12.2482 6.44947L12.3382 6.05971C12.2588 6.04139 12.1757 6.04881 12.1008 6.08087L12.2583 6.44857ZM12.2658 6.44191C12.2641 6.44488 12.2614 6.44721 12.2583 6.44857L12.1008 6.08087C12.0259 6.11294 11.9632 6.168 11.9217 6.23808L12.2658 6.44191ZM11.8009 7.30143L12.2697 6.43518L11.9179 6.24482L11.4491 7.11107L11.8009 7.30143ZM10.9603 7.85987C11.2678 7.75144 11.471 7.63629 11.6015 7.53474C11.6667 7.4841 11.7159 7.43515 11.751 7.39C11.7684 7.3676 11.7841 7.34375 11.7965 7.31895C11.8058 7.30046 11.825 7.25865 11.825 7.20625H11.425C11.425 7.18175 11.43 7.16396 11.4322 7.15669C11.4349 7.14801 11.4376 7.1424 11.4386 7.14027C11.4407 7.13607 11.4405 7.13759 11.4351 7.1446C11.4244 7.15829 11.4006 7.18433 11.356 7.219C11.2672 7.28808 11.1047 7.38481 10.8273 7.48263L10.9603 7.85987ZM10.7983 7.90299C10.8572 7.89456 10.9149 7.87885 10.9699 7.85619L10.8176 7.48631C10.7933 7.49633 10.7678 7.50328 10.7417 7.50701L10.7983 7.90299ZM10.8363 7.91769L10.9076 7.85019L10.6325 7.55981L10.5612 7.62731L10.8363 7.91769ZM10.4662 7.76194L10.5225 7.86694L10.8751 7.67805L10.8188 7.57305L10.4662 7.76194ZM10.7553 6.204C10.6576 6.42883 10.5506 6.73205 10.4825 7.00949C10.4485 7.14792 10.4227 7.28578 10.4139 7.40732C10.4059 7.51828 10.4083 7.6554 10.4668 7.76305L10.8182 7.57194C10.8186 7.57273 10.8055 7.53734 10.8129 7.43619C10.8194 7.34563 10.8398 7.23177 10.871 7.10489C10.9331 6.8517 11.0324 6.56991 11.1222 6.36349L10.7553 6.204ZM10.7533 6.21786C10.7522 6.21489 10.7522 6.21158 10.7534 6.20862L11.1241 6.35888C11.1613 6.2671 11.162 6.16457 11.1259 6.07232L10.7533 6.21786ZM10.7597 6.22462C10.7568 6.22326 10.7545 6.22084 10.7533 6.21786L11.1259 6.07232C11.0899 5.98008 11.0199 5.90514 10.9304 5.86288L10.7597 6.22462ZM10.7786 6.2278C10.7746 6.22935 10.7702 6.22928 10.7663 6.2276L10.9237 5.85989C10.8312 5.82027 10.7268 5.81859 10.6331 5.85522L10.7786 6.2278ZM10.7875 6.21931C10.7858 6.2232 10.7826 6.22625 10.7786 6.2278L10.6331 5.85522C10.5393 5.89184 10.4637 5.96384 10.4225 6.05568L10.7875 6.21931ZM10.5382 7.80184C10.4933 7.75322 10.4594 7.66677 10.4525 7.52774C10.4458 7.39125 10.4666 7.22855 10.5049 7.05725C10.5813 6.71534 10.7189 6.37653 10.7883 6.21755L10.4217 6.05745C10.3487 6.22471 10.1993 6.5909 10.1145 6.96994C10.0722 7.1591 10.0438 7.36086 10.053 7.54745C10.0621 7.73151 10.1092 7.92678 10.2443 8.07315L10.5382 7.80184ZM10.7154 7.87487C10.6444 7.86588 10.5777 7.8356 10.5241 7.78801L10.2584 8.08698C10.3723 8.18819 10.5141 8.25259 10.6652 8.2717L10.7154 7.87487ZM10.9223 7.83838C10.8586 7.87114 10.7865 7.88386 10.7154 7.87487L10.6652 8.2717C10.8164 8.29082 10.9697 8.26378 11.1052 8.19411L10.9223 7.83838ZM11.7827 7.25602C11.7637 7.30678 11.6384 7.58308 10.947 7.8277L11.0805 8.20479C11.8517 7.93191 12.0863 7.58572 12.1573 7.39647L11.7827 7.25602ZM11.77 7.29625V7.32625H12.17V7.29625H11.77ZM11.9356 6.95615L11.7969 7.19615L12.1432 7.39635L12.2819 7.15635L11.9356 6.95615ZM12.3444 7.30285L12.3069 7.02911L11.9106 7.08339L11.9481 7.35714L12.3444 7.30285ZM12.4377 7.74511C12.3848 7.60888 12.3538 7.46514 12.346 7.31922L11.9466 7.34078C11.9567 7.52892 11.9966 7.71425 12.0648 7.88989L12.4377 7.74511ZM12.7984 8.01677C12.7383 8.02484 12.6609 7.99153 12.5721 7.9052C12.4892 7.82461 12.4333 7.73267 12.424 7.71672L12.0785 7.91827C12.0955 7.94733 12.1727 8.07476 12.2932 8.19198C12.4079 8.30347 12.6042 8.44641 12.8516 8.41322L12.7984 8.01677ZM13.0063 7.69282C12.9362 7.96626 12.8496 8.00929 12.7962 8.01709L12.8539 8.41291C13.1604 8.36821 13.3139 8.10373 13.3937 7.79217L13.0063 7.69282ZM13.0496 7.49362L13.0046 7.69987L13.3954 7.78513L13.4404 7.57888L13.0496 7.49362ZM13.755 6.17C13.6749 6.17 13.5777 6.18142 13.4869 6.24486C13.3997 6.30581 13.3454 6.39603 13.3046 6.49273C13.2258 6.67893 13.156 6.99443 13.0494 7.49454L13.4406 7.57796C13.5515 7.05806 13.613 6.79045 13.673 6.64852C13.7015 6.58115 13.7184 6.57107 13.7161 6.57272C13.7102 6.57685 13.7114 6.57 13.755 6.57V6.17ZM14.026 6.1491C13.9344 6.16077 13.8423 6.16777 13.75 6.17006L13.76 6.56994C13.8658 6.5673 13.9715 6.55928 14.0765 6.54589L14.026 6.1491ZM14.8915 6.24402C14.6152 6.10428 14.2967 6.07243 13.9981 6.15468L14.1044 6.54032C14.3071 6.48447 14.5234 6.50609 14.711 6.60098L14.8915 6.24402ZM15.2 6.91745C15.2 6.68151 15.1089 6.45469 14.9458 6.28423L14.6568 6.56077C14.7487 6.65682 14.8 6.78462 14.8 6.91755L15.2 6.91745ZM15.2114 7.1372C15.2061 7.07542 15.2 7.00498 15.2 6.9175H14.8C14.8 7.02374 14.8075 7.10914 14.8129 7.1718L15.2114 7.1372ZM15.2122 7.15451V7.1545H14.8122V7.15451H15.2122ZM15.2188 7.25875C15.2188 7.21971 15.2148 7.17551 15.2114 7.13721L14.8129 7.17181C14.8168 7.21623 14.8188 7.24089 14.8188 7.25875H15.2188ZM15.2188 7.375V7.25875H14.8188V7.375H15.2188ZM14.9138 7.575H15.0188V7.175H14.9138V7.575ZM14.8425 7.575H14.9138V7.175H14.8425V7.575ZM14.5195 7.65136C14.6198 7.60118 14.7304 7.57503 14.8426 7.575L14.8425 7.175C14.6682 7.17505 14.4964 7.21567 14.3405 7.29364L14.5195 7.65136ZM14.1313 8.03875C14.2213 7.87317 14.3578 7.73764 14.5241 7.64897L14.3359 7.29602C14.1005 7.42154 13.9072 7.61339 13.7798 7.84778L14.1313 8.03875ZM14.018 8.58043C14.0019 8.39267 14.0413 8.20433 14.1313 8.03875L13.7798 7.84778C13.6525 8.08217 13.5967 8.34879 13.6195 8.61457L14.018 8.58043ZM14.1125 8.82927C14.0558 8.76118 14.0228 8.67645 14.0185 8.58792L13.619 8.60708C13.6274 8.78251 13.6928 8.95042 13.8052 9.08534L14.1125 8.82927ZM14.333 8.96523C14.2466 8.94509 14.1693 8.89736 14.1125 8.82927L13.8052 9.08534C13.9177 9.22027 14.071 9.31485 14.2421 9.35477L14.333 8.96523ZM15.9982 9.53739C15.4573 9.31611 14.9043 9.12583 14.3417 8.96748L14.2333 9.35252C14.7812 9.50675 15.3199 9.69208 15.8468 9.90761L15.9982 9.53739ZM16.079 9.59088L16.0453 9.56463L15.7997 9.88037L15.8335 9.90662L16.079 9.59088ZM16.6478 10.2102L16.104 9.61398L15.8085 9.88351L16.3522 10.4798L16.6478 10.2102ZM16.8551 10.9294L16.6938 10.2957L16.3062 10.3943L16.4674 11.0281L16.8551 10.9294ZM16.9734 11.8033C16.969 11.7286 16.9032 11.2578 16.8593 10.9505L16.4633 11.007C16.4857 11.1643 16.5129 11.357 16.5348 11.5181C16.5458 11.5987 16.5554 11.671 16.5625 11.7269C16.5661 11.7549 16.5689 11.7783 16.571 11.7963C16.572 11.8053 16.5728 11.8126 16.5733 11.8182C16.5736 11.821 16.5738 11.8231 16.5739 11.8247C16.5741 11.8264 16.5741 11.827 16.5741 11.8267L16.9734 11.8033ZM16.9738 12.565V11.815H16.5738V12.565H16.9738ZM17.2808 13.6825C17.2404 13.6608 17.1932 13.6118 17.1469 13.5201C17.1016 13.4303 17.0659 13.3166 17.0391 13.1922C16.9854 12.9435 16.9738 12.6841 16.9738 12.565H16.5738C16.5738 12.7009 16.5865 12.9908 16.6481 13.2766C16.6789 13.4194 16.7236 13.569 16.7898 13.7002C16.855 13.8296 16.9503 13.9592 17.0918 14.035L17.2808 13.6825ZM17.3819 13.6919C17.3415 13.6958 17.3007 13.6897 17.2632 13.6741L17.1094 14.0434C17.2078 14.0844 17.3149 14.1004 17.421 14.09L17.3819 13.6919ZM17.4949 13.6514C17.4612 13.674 17.4223 13.6879 17.3819 13.6919L17.421 14.09C17.5271 14.0795 17.629 14.043 17.7176 13.9836L17.4949 13.6514ZM19.1688 10.2238C19.2335 10.4081 19.2144 10.688 19.1095 11.0404C19.0068 11.3852 18.8321 11.7671 18.6277 12.1351C18.4237 12.5022 18.1937 12.8491 17.9846 13.1233C17.7694 13.4053 17.5929 13.5879 17.4976 13.6496L17.7149 13.9854C17.8746 13.8821 18.0877 13.6475 18.3026 13.3659C18.5235 13.0763 18.7641 12.7132 18.9773 12.3293C19.1901 11.9463 19.3791 11.5365 19.4928 11.1545C19.6043 10.7801 19.654 10.3981 19.5462 10.0912L19.1688 10.2238ZM19.4088 8.9615C19.3029 9.01866 19.2037 9.07698 19.1293 9.14745C19.0462 9.22613 18.992 9.32151 18.9787 9.4429C18.9668 9.55107 18.9895 9.66546 19.0222 9.78205C19.0555 9.90103 19.1068 10.0471 19.1688 10.2237L19.5462 10.0913C19.4826 9.90978 19.4364 9.77787 19.4074 9.6742C19.3777 9.56813 19.3732 9.51518 19.3763 9.48647C19.378 9.47099 19.381 9.45996 19.4043 9.43786C19.4363 9.40755 19.4928 9.37071 19.5988 9.31349L19.4088 8.9615ZM20.3166 7.89655C20.3357 8.22648 20.0913 8.59455 19.4091 8.96134L19.5985 9.31365C20.3112 8.93045 20.7493 8.45102 20.7159 7.87345L20.3166 7.89655ZM20.318 7.91021L20.3178 7.90973L20.7147 7.86027C20.7081 7.80679 20.6906 7.75521 20.6635 7.70866L20.318 7.91021ZM20.3183 7.91058L20.318 7.9102L20.6635 7.70866C20.6363 7.6621 20.6 7.62154 20.5567 7.58942L20.3183 7.91058ZM20.3269 7.90831C20.3198 7.90879 20.3127 7.90643 20.3072 7.90174L20.5678 7.59826C20.4938 7.53473 20.3979 7.50275 20.3006 7.50918L20.3269 7.90831ZM11.327 10.4467C11.1668 10.2879 10.9861 10.151 10.7898 10.0398L10.5926 10.3877C10.7581 10.4815 10.9103 10.5969 11.0454 10.7308L11.327 10.4467ZM11.8259 10.6626C11.6379 10.6092 11.4591 10.5278 11.2954 10.4212L11.077 10.7563C11.2744 10.8849 11.49 10.983 11.7166 11.0474L11.8259 10.6626ZM11.6187 10.6959L11.585 10.7821L11.9575 10.9279L11.9912 10.8416L11.6187 10.6959ZM11.9639 10.9207L11.9939 10.8345L11.6161 10.703L11.5861 10.7893L11.9639 10.9207ZM11.8746 10.6792C11.8656 10.6756 11.8565 10.6721 11.8475 10.6686L11.7025 11.0414C11.7116 11.045 11.7207 11.0485 11.7297 11.052L11.8746 10.6792ZM12.7747 11.3767C12.7382 11.1608 12.5818 11.0219 12.4247 10.9266C12.2673 10.8311 12.0661 10.7535 11.8746 10.6792L11.7297 11.052C11.9318 11.1305 12.0961 11.1951 12.2171 11.2685C12.3383 11.342 12.3728 11.399 12.3803 11.4433L12.7747 11.3767ZM12.7373 11.6829C12.7767 11.5878 12.7899 11.4839 12.7755 11.382L12.3794 11.438C12.3838 11.469 12.3798 11.5007 12.3678 11.5296L12.7373 11.6829ZM12.5512 11.9225C12.6336 11.8607 12.6978 11.778 12.7373 11.6829L12.3678 11.5296C12.3558 11.5585 12.3362 11.5837 12.3112 11.6025L12.5512 11.9225ZM12.4798 11.9889L12.5661 11.9102L12.2964 11.6148L12.2101 11.6936L12.4798 11.9889ZM11.92 12.6729C12.0394 12.406 12.2265 12.175 12.4627 12.0029L12.2272 11.6796C11.9345 11.8929 11.7027 12.179 11.5549 12.5096L11.92 12.6729ZM11.22 13.9225C11.4092 13.9871 11.4092 13.9871 11.4092 13.9871C11.4092 13.9871 11.4092 13.9871 11.4092 13.9871C11.4093 13.9871 11.4093 13.987 11.4093 13.987C11.4093 13.9869 11.4094 13.9867 11.4094 13.9865C11.4096 13.9861 11.4098 13.9855 11.4101 13.9846C11.4107 13.9829 11.4116 13.9803 11.4127 13.9769C11.4151 13.9701 11.4185 13.96 11.423 13.947C11.4321 13.921 11.4452 13.8833 11.4615 13.8368C11.4943 13.7437 11.54 13.6156 11.5918 13.4752C11.6967 13.1911 11.8226 12.8682 11.9163 12.6807L11.5586 12.5018C11.4536 12.7118 11.3207 13.0545 11.2166 13.3367C11.1638 13.4794 11.1174 13.6096 11.0842 13.704C11.0676 13.7512 11.0542 13.7896 11.045 13.8162C11.0404 13.8295 11.0369 13.8399 11.0344 13.8469C11.0332 13.8505 11.0323 13.8532 11.0317 13.855C11.0314 13.8559 11.0311 13.8566 11.0309 13.8571C11.0309 13.8574 11.0308 13.8575 11.0308 13.8577C11.0307 13.8577 11.0307 13.8578 11.0307 13.8578C11.0307 13.8578 11.0307 13.8579 11.0307 13.8579C11.0307 13.8579 11.0307 13.8579 11.22 13.9225ZM11.2154 14.2039C11.3022 14.1605 11.3701 14.0865 11.4059 13.9962L11.0341 13.8488C11.0345 13.8476 11.0354 13.8467 11.0365 13.8461L11.2154 14.2039ZM10.9349 14.2317C11.0286 14.2572 11.1285 14.2473 11.2154 14.2039L11.0365 13.8461C11.0376 13.8456 11.0388 13.8455 11.04 13.8458L10.9349 14.2317ZM10.7034 14.0327C10.7474 14.1236 10.8254 14.1935 10.9206 14.2273L11.0543 13.8503C11.0583 13.8517 11.0616 13.8546 11.0635 13.8585L10.7034 14.0327ZM10.6857 13.7417C10.6531 13.8373 10.6595 13.9418 10.7034 14.0327L11.0635 13.8585C11.0654 13.8623 11.0656 13.8668 11.0643 13.8708L10.6857 13.7417ZM11.218 12.3543C11.1066 12.573 10.9726 12.9223 10.8688 13.2095C10.8162 13.3549 10.7703 13.4874 10.7375 13.5842C10.7211 13.6326 10.7079 13.6723 10.6987 13.7003C10.6941 13.7143 10.6904 13.7258 10.6877 13.7342C10.6864 13.7383 10.6852 13.7425 10.6841 13.7462C10.6836 13.7478 10.6827 13.7507 10.6819 13.754C10.6815 13.7555 10.6806 13.7588 10.6797 13.763C10.6792 13.765 10.6784 13.7688 10.6776 13.7737C10.6772 13.7761 10.675 13.7893 10.675 13.8063H11.075C11.075 13.8231 11.0727 13.8362 11.0723 13.8385C11.0716 13.8433 11.0708 13.847 11.0704 13.8489C11.0695 13.8527 11.0688 13.8556 11.0685 13.8565C11.0682 13.8577 11.0679 13.8586 11.0678 13.859C11.0678 13.8592 11.0677 13.8593 11.0677 13.8594C11.0677 13.8595 11.0677 13.8596 11.0677 13.8596C11.0677 13.8596 11.0677 13.8595 11.0677 13.8595C11.0677 13.8594 11.0677 13.8593 11.0678 13.8592C11.0679 13.8589 11.068 13.8585 11.0681 13.858C11.0684 13.8571 11.0688 13.8559 11.0693 13.8543C11.0713 13.8479 11.0745 13.838 11.0788 13.8247C11.0875 13.7983 11.1002 13.76 11.1163 13.7126C11.1484 13.6179 11.1934 13.488 11.2449 13.3455C11.3492 13.057 11.4758 12.7295 11.5744 12.5357L11.218 12.3543ZM11.9711 11.4367C11.6461 11.6768 11.3863 11.9943 11.2151 12.3603L11.5774 12.5298C11.7204 12.2241 11.9374 11.9589 12.2088 11.7583L11.9711 11.4367ZM12.0732 11.3391L11.9532 11.4516L12.2267 11.7434L12.3467 11.6309L12.0732 11.3391ZM11.9989 11.5953L12.1114 11.659L12.3086 11.311L12.1961 11.2472L11.9989 11.5953ZM11.5601 11.4104C11.7132 11.4663 11.8635 11.53 12.0101 11.6012L12.1848 11.2413C12.0259 11.1642 11.8632 11.0952 11.6973 11.0346L11.5601 11.4104ZM10.7988 11.0037C11.0278 11.1869 11.2891 11.3259 11.569 11.4134L11.6884 11.0316C11.4558 10.9589 11.2389 10.8435 11.0487 10.6913L10.7988 11.0037ZM10.3961 10.6965C10.5379 10.7745 10.6676 10.8727 10.7813 10.9879L11.0661 10.7071C10.9253 10.5643 10.7646 10.4427 10.5889 10.346L10.3961 10.6965ZM10.1149 10.5161C10.2203 10.5903 10.3081 10.6463 10.3932 10.6949L10.5917 10.3476C10.5193 10.3062 10.4421 10.2572 10.3451 10.1889L10.1149 10.5161ZM10.0136 10.4448L10.1149 10.5161L10.3451 10.1889L10.2438 10.1177L10.0136 10.4448ZM10.2759 10.4644L10.3172 10.3481L9.94023 10.2144L9.89898 10.3306L10.2759 10.4644ZM10.0544 11.6722C10.0848 11.2595 10.1601 10.8513 10.279 10.455L9.89589 10.34C9.76864 10.7643 9.68803 11.2011 9.6555 11.6428L10.0544 11.6722ZM10.0136 11.8175C10.037 11.7721 10.0509 11.7224 10.0545 11.6714L9.65545 11.6436C9.65567 11.6403 9.65655 11.6372 9.65803 11.6343L10.0136 11.8175ZM9.91839 11.9356C9.95782 11.9031 9.99022 11.8629 10.0136 11.8175L9.65803 11.6343C9.6595 11.6315 9.66155 11.6289 9.66404 11.6269L9.91839 11.9356ZM9.7846 12.0065C9.83467 11.9922 9.8811 11.9674 9.92078 11.9336L9.66164 11.6289C9.66545 11.6257 9.6699 11.6233 9.6747 11.6219L9.7846 12.0065ZM9.63044 12.0166C9.68195 12.0242 9.73451 12.0208 9.78459 12.0065L9.6747 11.6219C9.67951 11.6205 9.68455 11.6202 9.68948 11.6209L9.63044 12.0166ZM9.49993 11.9774C9.54536 12.0008 9.59507 12.0147 9.64602 12.0183L9.6739 11.6192C9.67711 11.6195 9.68024 11.6203 9.68312 11.6218L9.49993 11.9774ZM9.38185 11.8822C9.41434 11.9216 9.45451 11.954 9.49994 11.9774L9.68311 11.6218C9.68599 11.6233 9.68852 11.6253 9.69057 11.6278L9.38185 11.8822ZM9.29559 11.6079C9.28772 11.707 9.31861 11.8053 9.38174 11.882L9.69069 11.628C9.69336 11.6312 9.69467 11.6354 9.69433 11.6396L9.29559 11.6079ZM9.93368 9.73367C9.79161 9.79456 9.69612 9.92378 9.6301 10.0494C9.56134 10.1803 9.50748 10.3403 9.46434 10.5087C9.37781 10.8464 9.32605 11.2519 9.29569 11.6067L9.69423 11.6408C9.72388 11.2944 9.77336 10.9142 9.85183 10.6079C9.89119 10.4543 9.93577 10.3276 9.98419 10.2355C10.0354 10.1381 10.0758 10.1079 10.0912 10.1013L9.93368 9.73367ZM10.203 9.70125C10.1126 9.68675 10.02 9.6977 9.93557 9.73287L10.0894 10.1021C10.1052 10.0955 10.1226 10.0935 10.1396 10.0962L10.203 9.70125ZM10.447 9.81496C10.3778 9.75512 10.2933 9.71574 10.203 9.70125L10.1396 10.0962C10.1565 10.0989 10.1724 10.1063 10.1854 10.1175L10.447 9.81496ZM10.7904 10.0401C10.6677 9.96997 10.5496 9.89202 10.4369 9.80674L10.1956 10.1258C10.322 10.2214 10.4544 10.3088 10.592 10.3874L10.7904 10.0401Z" fill="black" mask="url(#path-2-outside-1)"/>
</svg>
